<?xml version="1.0" encoding="utf-8" standalone="no"?>
<!DOCTYPE svg PUBLIC "-//W3C//DTD SVG 1.1//EN"
  "http://www.w3.org/Graphics/SVG/1.1/DTD/svg11.dtd">
<svg xmlns:xlink="http://www.w3.org/1999/xlink" width="460.8pt" height="345.6pt" viewBox="0 0 460.8 345.6" xmlns="http://www.w3.org/2000/svg" version="1.1">
 <metadata>
  <rdf:RDF xmlns:dc="http://purl.org/dc/elements/1.1/" xmlns:cc="http://creativecommons.org/ns#" xmlns:rdf="http://www.w3.org/1999/02/22-rdf-syntax-ns#">
   <cc:Work>
    <dc:type rdf:resource="http://purl.org/dc/dcmitype/StillImage"/>
    <dc:date>2023-07-19T14:05:53.938020</dc:date>
    <dc:format>image/svg+xml</dc:format>
    <dc:creator>
     <cc:Agent>
      <dc:title>Matplotlib v3.5.3, https://matplotlib.org/</dc:title>
     </cc:Agent>
    </dc:creator>
   </cc:Work>
  </rdf:RDF>
 </metadata>
 <defs>
  <style type="text/css">*{stroke-linejoin: round; stroke-linecap: butt}</style>
 </defs>
 <g id="figure_1">
  <g id="patch_1">
   <path d="M 0 345.6 
L 460.8 345.6 
L 460.8 0 
L 0 0 
z
" style="fill: #ffffff"/>
  </g>
  <g id="axes_1">
   <g id="patch_2">
    <path d="M 57.6 307.584 
L 414.72 307.584 
L 414.72 41.472 
L 57.6 41.472 
z
" style="fill: #ffffff"/>
   </g>
   <g id="PathCollection_1">
    <defs>
     <path id="m75844b9921" d="M 0 3 
C 0.795609 3 1.55874 2.683901 2.12132 2.12132 
C 2.683901 1.55874 3 0.795609 3 0 
C 3 -0.795609 2.683901 -1.55874 2.12132 -2.12132 
C 1.55874 -2.683901 0.795609 -3 0 -3 
C -0.795609 -3 -1.55874 -2.683901 -2.12132 -2.12132 
C -2.683901 -1.55874 -3 -0.795609 -3 0 
C -3 0.795609 -2.683901 1.55874 -2.12132 2.12132 
C -1.55874 2.683901 -0.795609 3 0 3 
z
" style="stroke: #1f77b4"/>
    </defs>
    <g clip-path="url(#p93d9dd7fca)">
     <use xlink:href="#m75844b9921" x="253.414182" y="132.244022" style="fill: #1f77b4; stroke: #1f77b4"/>
     <use xlink:href="#m75844b9921" x="308.325098" y="232.187044" style="fill: #1f77b4; stroke: #1f77b4"/>
     <use xlink:href="#m75844b9921" x="271.219871" y="118.182328" style="fill: #1f77b4; stroke: #1f77b4"/>
     <use xlink:href="#m75844b9921" x="252.117013" y="62.552013" style="fill: #1f77b4; stroke: #1f77b4"/>
     <use xlink:href="#m75844b9921" x="212.106633" y="237.396037" style="fill: #1f77b4; stroke: #1f77b4"/>
     <use xlink:href="#m75844b9921" x="285.454798" y="157.157986" style="fill: #1f77b4; stroke: #1f77b4"/>
     <use xlink:href="#m75844b9921" x="216.704905" y="153.265094" style="fill: #1f77b4; stroke: #1f77b4"/>
     <use xlink:href="#m75844b9921" x="366.605001" y="158.115102" style="fill: #1f77b4; stroke: #1f77b4"/>
     <use xlink:href="#m75844b9921" x="390.331595" y="243.687441" style="fill: #1f77b4; stroke: #1f77b4"/>
     <use xlink:href="#m75844b9921" x="198.834587" y="64.865391" style="fill: #1f77b4; stroke: #1f77b4"/>
     <use xlink:href="#m75844b9921" x="333.585035" y="188.780283" style="fill: #1f77b4; stroke: #1f77b4"/>
     <use xlink:href="#m75844b9921" x="246.840225" y="90.926578" style="fill: #1f77b4; stroke: #1f77b4"/>
     <use xlink:href="#m75844b9921" x="259.761226" y="126.935061" style="fill: #1f77b4; stroke: #1f77b4"/>
     <use xlink:href="#m75844b9921" x="377.7682" y="225.464932" style="fill: #1f77b4; stroke: #1f77b4"/>
     <use xlink:href="#m75844b9921" x="95.727863" y="98.918629" style="fill: #1f77b4; stroke: #1f77b4"/>
     <use xlink:href="#m75844b9921" x="101.039299" y="201.185809" style="fill: #1f77b4; stroke: #1f77b4"/>
     <use xlink:href="#m75844b9921" x="78.955933" y="82.423873" style="fill: #1f77b4; stroke: #1f77b4"/>
     <use xlink:href="#m75844b9921" x="347.082013" y="155.904304" style="fill: #1f77b4; stroke: #1f77b4"/>
     <use xlink:href="#m75844b9921" x="329.106939" y="82.268946" style="fill: #1f77b4; stroke: #1f77b4"/>
     <use xlink:href="#m75844b9921" x="359.42302" y="128.637754" style="fill: #1f77b4; stroke: #1f77b4"/>
     <use xlink:href="#m75844b9921" x="395.267556" y="120.618294" style="fill: #1f77b4; stroke: #1f77b4"/>
     <use xlink:href="#m75844b9921" x="336.038406" y="175.49755" style="fill: #1f77b4; stroke: #1f77b4"/>
     <use xlink:href="#m75844b9921" x="224.590303" y="64.048164" style="fill: #1f77b4; stroke: #1f77b4"/>
     <use xlink:href="#m75844b9921" x="329.889938" y="140.533957" style="fill: #1f77b4; stroke: #1f77b4"/>
     <use xlink:href="#m75844b9921" x="111.318478" y="194.483222" style="fill: #1f77b4; stroke: #1f77b4"/>
     <use xlink:href="#m75844b9921" x="283.483431" y="149.747977" style="fill: #1f77b4; stroke: #1f77b4"/>
     <use xlink:href="#m75844b9921" x="119.59554" y="293.655068" style="fill: #1f77b4; stroke: #1f77b4"/>
     <use xlink:href="#m75844b9921" x="384.062841" y="224.450851" style="fill: #1f77b4; stroke: #1f77b4"/>
     <use xlink:href="#m75844b9921" x="244.514556" y="136.567851" style="fill: #1f77b4; stroke: #1f77b4"/>
     <use xlink:href="#m75844b9921" x="209.138617" y="227.268511" style="fill: #1f77b4; stroke: #1f77b4"/>
     <use xlink:href="#m75844b9921" x="159.59732" y="146.899681" style="fill: #1f77b4; stroke: #1f77b4"/>
     <use xlink:href="#m75844b9921" x="327.812167" y="193.279016" style="fill: #1f77b4; stroke: #1f77b4"/>
     <use xlink:href="#m75844b9921" x="222.831502" y="265.157724" style="fill: #1f77b4; stroke: #1f77b4"/>
     <use xlink:href="#m75844b9921" x="259.88974" y="225.257753" style="fill: #1f77b4; stroke: #1f77b4"/>
     <use xlink:href="#m75844b9921" x="78.484437" y="158.675584" style="fill: #1f77b4; stroke: #1f77b4"/>
     <use xlink:href="#m75844b9921" x="276.128286" y="153.551627" style="fill: #1f77b4; stroke: #1f77b4"/>
     <use xlink:href="#m75844b9921" x="274.299931" y="157.606981" style="fill: #1f77b4; stroke: #1f77b4"/>
     <use xlink:href="#m75844b9921" x="275.896762" y="138.276679" style="fill: #1f77b4; stroke: #1f77b4"/>
     <use xlink:href="#m75844b9921" x="383.758926" y="138.545659" style="fill: #1f77b4; stroke: #1f77b4"/>
     <use xlink:href="#m75844b9921" x="297.311925" y="192.629637" style="fill: #1f77b4; stroke: #1f77b4"/>
     <use xlink:href="#m75844b9921" x="190.935503" y="78.639107" style="fill: #1f77b4; stroke: #1f77b4"/>
     <use xlink:href="#m75844b9921" x="216.521647" y="208.279181" style="fill: #1f77b4; stroke: #1f77b4"/>
     <use xlink:href="#m75844b9921" x="302.530175" y="191.539921" style="fill: #1f77b4; stroke: #1f77b4"/>
     <use xlink:href="#m75844b9921" x="92.159923" y="79.77214" style="fill: #1f77b4; stroke: #1f77b4"/>
     <use xlink:href="#m75844b9921" x="292.34362" y="100.782126" style="fill: #1f77b4; stroke: #1f77b4"/>
     <use xlink:href="#m75844b9921" x="293.621261" y="125.854457" style="fill: #1f77b4; stroke: #1f77b4"/>
     <use xlink:href="#m75844b9921" x="141.717973" y="273.795868" style="fill: #1f77b4; stroke: #1f77b4"/>
     <use xlink:href="#m75844b9921" x="114.834037" y="73.0181" style="fill: #1f77b4; stroke: #1f77b4"/>
     <use xlink:href="#m75844b9921" x="176.387428" y="123.317282" style="fill: #1f77b4; stroke: #1f77b4"/>
     <use xlink:href="#m75844b9921" x="192.322624" y="53.568" style="fill: #1f77b4; stroke: #1f77b4"/>
     <use xlink:href="#m75844b9921" x="260.471544" y="261.733009" style="fill: #1f77b4; stroke: #1f77b4"/>
     <use xlink:href="#m75844b9921" x="217.039666" y="85.604225" style="fill: #1f77b4; stroke: #1f77b4"/>
     <use xlink:href="#m75844b9921" x="398.487273" y="258.536118" style="fill: #1f77b4; stroke: #1f77b4"/>
     <use xlink:href="#m75844b9921" x="105.962034" y="147.501548" style="fill: #1f77b4; stroke: #1f77b4"/>
     <use xlink:href="#m75844b9921" x="141.220995" y="268.013829" style="fill: #1f77b4; stroke: #1f77b4"/>
     <use xlink:href="#m75844b9921" x="125.521839" y="90.534569" style="fill: #1f77b4; stroke: #1f77b4"/>
     <use xlink:href="#m75844b9921" x="287.835787" y="100.506426" style="fill: #1f77b4; stroke: #1f77b4"/>
     <use xlink:href="#m75844b9921" x="155.879731" y="158.88737" style="fill: #1f77b4; stroke: #1f77b4"/>
     <use xlink:href="#m75844b9921" x="226.184868" y="198.569024" style="fill: #1f77b4; stroke: #1f77b4"/>
     <use xlink:href="#m75844b9921" x="152.953581" y="281.407821" style="fill: #1f77b4; stroke: #1f77b4"/>
     <use xlink:href="#m75844b9921" x="124.749564" y="127.437585" style="fill: #1f77b4; stroke: #1f77b4"/>
     <use xlink:href="#m75844b9921" x="108.711388" y="187.207573" style="fill: #1f77b4; stroke: #1f77b4"/>
     <use xlink:href="#m75844b9921" x="288.898937" y="121.402205" style="fill: #1f77b4; stroke: #1f77b4"/>
     <use xlink:href="#m75844b9921" x="117.889115" y="86.031567" style="fill: #1f77b4; stroke: #1f77b4"/>
     <use xlink:href="#m75844b9921" x="137.163336" y="59.284459" style="fill: #1f77b4; stroke: #1f77b4"/>
     <use xlink:href="#m75844b9921" x="193.977583" y="88.624194" style="fill: #1f77b4; stroke: #1f77b4"/>
     <use xlink:href="#m75844b9921" x="343.244749" y="295.488" style="fill: #1f77b4; stroke: #1f77b4"/>
     <use xlink:href="#m75844b9921" x="104.330463" y="210.13777" style="fill: #1f77b4; stroke: #1f77b4"/>
     <use xlink:href="#m75844b9921" x="348.839504" y="119.457557" style="fill: #1f77b4; stroke: #1f77b4"/>
     <use xlink:href="#m75844b9921" x="103.999475" y="256.296945" style="fill: #1f77b4; stroke: #1f77b4"/>
     <use xlink:href="#m75844b9921" x="394.555037" y="170.666609" style="fill: #1f77b4; stroke: #1f77b4"/>
     <use xlink:href="#m75844b9921" x="226.957306" y="285.042016" style="fill: #1f77b4; stroke: #1f77b4"/>
     <use xlink:href="#m75844b9921" x="394.654585" y="249.344986" style="fill: #1f77b4; stroke: #1f77b4"/>
     <use xlink:href="#m75844b9921" x="271.907065" y="293.819611" style="fill: #1f77b4; stroke: #1f77b4"/>
     <use xlink:href="#m75844b9921" x="316.270584" y="103.844633" style="fill: #1f77b4; stroke: #1f77b4"/>
     <use xlink:href="#m75844b9921" x="85.216618" y="243.48083" style="fill: #1f77b4; stroke: #1f77b4"/>
     <use xlink:href="#m75844b9921" x="165.621021" y="213.722307" style="fill: #1f77b4; stroke: #1f77b4"/>
     <use xlink:href="#m75844b9921" x="111.952863" y="70.910792" style="fill: #1f77b4; stroke: #1f77b4"/>
     <use xlink:href="#m75844b9921" x="170.02154" y="125.725593" style="fill: #1f77b4; stroke: #1f77b4"/>
     <use xlink:href="#m75844b9921" x="111.468084" y="290.555936" style="fill: #1f77b4; stroke: #1f77b4"/>
     <use xlink:href="#m75844b9921" x="177.230627" y="257.996657" style="fill: #1f77b4; stroke: #1f77b4"/>
     <use xlink:href="#m75844b9921" x="209.006948" y="146.050999" style="fill: #1f77b4; stroke: #1f77b4"/>
     <use xlink:href="#m75844b9921" x="93.454353" y="156.89545" style="fill: #1f77b4; stroke: #1f77b4"/>
     <use xlink:href="#m75844b9921" x="300.827467" y="240.057613" style="fill: #1f77b4; stroke: #1f77b4"/>
     <use xlink:href="#m75844b9921" x="259.284941" y="69.40783" style="fill: #1f77b4; stroke: #1f77b4"/>
     <use xlink:href="#m75844b9921" x="159.872535" y="147.892099" style="fill: #1f77b4; stroke: #1f77b4"/>
     <use xlink:href="#m75844b9921" x="244.976526" y="167.08947" style="fill: #1f77b4; stroke: #1f77b4"/>
     <use xlink:href="#m75844b9921" x="103.28728" y="153.787579" style="fill: #1f77b4; stroke: #1f77b4"/>
     <use xlink:href="#m75844b9921" x="262.369191" y="119.425338" style="fill: #1f77b4; stroke: #1f77b4"/>
     <use xlink:href="#m75844b9921" x="378.989208" y="221.909396" style="fill: #1f77b4; stroke: #1f77b4"/>
     <use xlink:href="#m75844b9921" x="177.423957" y="200.765429" style="fill: #1f77b4; stroke: #1f77b4"/>
     <use xlink:href="#m75844b9921" x="292.556056" y="246.931694" style="fill: #1f77b4; stroke: #1f77b4"/>
     <use xlink:href="#m75844b9921" x="115.781772" y="252.727861" style="fill: #1f77b4; stroke: #1f77b4"/>
     <use xlink:href="#m75844b9921" x="308.700631" y="66.918278" style="fill: #1f77b4; stroke: #1f77b4"/>
     <use xlink:href="#m75844b9921" x="167.799007" y="117.114599" style="fill: #1f77b4; stroke: #1f77b4"/>
     <use xlink:href="#m75844b9921" x="132.743752" y="178.160413" style="fill: #1f77b4; stroke: #1f77b4"/>
     <use xlink:href="#m75844b9921" x="265.856553" y="242.625539" style="fill: #1f77b4; stroke: #1f77b4"/>
     <use xlink:href="#m75844b9921" x="78.919348" y="236.022808" style="fill: #1f77b4; stroke: #1f77b4"/>
     <use xlink:href="#m75844b9921" x="345.867521" y="284.137408" style="fill: #1f77b4; stroke: #1f77b4"/>
     <use xlink:href="#m75844b9921" x="73.832727" y="191.89486" style="fill: #1f77b4; stroke: #1f77b4"/>
    </g>
   </g>
   <g id="matplotlib.axis_1">
    <g id="xtick_1">
     <g id="line2d_1">
      <defs>
       <path id="m77532f6910" d="M 0 0 
L 0 3.5 
" style="stroke: #000000; stroke-width: 0.8"/>
      </defs>
      <g>
       <use xlink:href="#m77532f6910" x="72.283026" y="307.584" style="stroke: #000000; stroke-width: 0.8"/>
      </g>
     </g>
     <g id="text_1">
      <!-- 0.0 -->
      <g transform="translate(64.331463 322.182437)scale(0.1 -0.1)">
       <defs>
        <path id="DejaVuSans-30" d="M 2034 4250 
Q 1547 4250 1301 3770 
Q 1056 3291 1056 2328 
Q 1056 1369 1301 889 
Q 1547 409 2034 409 
Q 2525 409 2770 889 
Q 3016 1369 3016 2328 
Q 3016 3291 2770 3770 
Q 2525 4250 2034 4250 
z
M 2034 4750 
Q 2819 4750 3233 4129 
Q 3647 3509 3647 2328 
Q 3647 1150 3233 529 
Q 2819 -91 2034 -91 
Q 1250 -91 836 529 
Q 422 1150 422 2328 
Q 422 3509 836 4129 
Q 1250 4750 2034 4750 
z
" transform="scale(0.015625)"/>
        <path id="DejaVuSans-2e" d="M 684 794 
L 1344 794 
L 1344 0 
L 684 0 
L 684 794 
z
" transform="scale(0.015625)"/>
       </defs>
       <use xlink:href="#DejaVuSans-30"/>
       <use xlink:href="#DejaVuSans-2e" x="63.623047"/>
       <use xlink:href="#DejaVuSans-30" x="95.410156"/>
      </g>
     </g>
    </g>
    <g id="xtick_2">
     <g id="line2d_2">
      <g>
       <use xlink:href="#m77532f6910" x="138.291298" y="307.584" style="stroke: #000000; stroke-width: 0.8"/>
      </g>
     </g>
     <g id="text_2">
      <!-- 0.2 -->
      <g transform="translate(130.339736 322.182437)scale(0.1 -0.1)">
       <defs>
        <path id="DejaVuSans-32" d="M 1228 531 
L 3431 531 
L 3431 0 
L 469 0 
L 469 531 
Q 828 903 1448 1529 
Q 2069 2156 2228 2338 
Q 2531 2678 2651 2914 
Q 2772 3150 2772 3378 
Q 2772 3750 2511 3984 
Q 2250 4219 1831 4219 
Q 1534 4219 1204 4116 
Q 875 4013 500 3803 
L 500 4441 
Q 881 4594 1212 4672 
Q 1544 4750 1819 4750 
Q 2544 4750 2975 4387 
Q 3406 4025 3406 3419 
Q 3406 3131 3298 2873 
Q 3191 2616 2906 2266 
Q 2828 2175 2409 1742 
Q 1991 1309 1228 531 
z
" transform="scale(0.015625)"/>
       </defs>
       <use xlink:href="#DejaVuSans-30"/>
       <use xlink:href="#DejaVuSans-2e" x="63.623047"/>
       <use xlink:href="#DejaVuSans-32" x="95.410156"/>
      </g>
     </g>
    </g>
    <g id="xtick_3">
     <g id="line2d_3">
      <g>
       <use xlink:href="#m77532f6910" x="204.29957" y="307.584" style="stroke: #000000; stroke-width: 0.8"/>
      </g>
     </g>
     <g id="text_3">
      <!-- 0.4 -->
      <g transform="translate(196.348008 322.182437)scale(0.1 -0.1)">
       <defs>
        <path id="DejaVuSans-34" d="M 2419 4116 
L 825 1625 
L 2419 1625 
L 2419 4116 
z
M 2253 4666 
L 3047 4666 
L 3047 1625 
L 3713 1625 
L 3713 1100 
L 3047 1100 
L 3047 0 
L 2419 0 
L 2419 1100 
L 313 1100 
L 313 1709 
L 2253 4666 
z
" transform="scale(0.015625)"/>
       </defs>
       <use xlink:href="#DejaVuSans-30"/>
       <use xlink:href="#DejaVuSans-2e" x="63.623047"/>
       <use xlink:href="#DejaVuSans-34" x="95.410156"/>
      </g>
     </g>
    </g>
    <g id="xtick_4">
     <g id="line2d_4">
      <g>
       <use xlink:href="#m77532f6910" x="270.307843" y="307.584" style="stroke: #000000; stroke-width: 0.8"/>
      </g>
     </g>
     <g id="text_4">
      <!-- 0.6 -->
      <g transform="translate(262.35628 322.182437)scale(0.1 -0.1)">
       <defs>
        <path id="DejaVuSans-36" d="M 2113 2584 
Q 1688 2584 1439 2293 
Q 1191 2003 1191 1497 
Q 1191 994 1439 701 
Q 1688 409 2113 409 
Q 2538 409 2786 701 
Q 3034 994 3034 1497 
Q 3034 2003 2786 2293 
Q 2538 2584 2113 2584 
z
M 3366 4563 
L 3366 3988 
Q 3128 4100 2886 4159 
Q 2644 4219 2406 4219 
Q 1781 4219 1451 3797 
Q 1122 3375 1075 2522 
Q 1259 2794 1537 2939 
Q 1816 3084 2150 3084 
Q 2853 3084 3261 2657 
Q 3669 2231 3669 1497 
Q 3669 778 3244 343 
Q 2819 -91 2113 -91 
Q 1303 -91 875 529 
Q 447 1150 447 2328 
Q 447 3434 972 4092 
Q 1497 4750 2381 4750 
Q 2619 4750 2861 4703 
Q 3103 4656 3366 4563 
z
" transform="scale(0.015625)"/>
       </defs>
       <use xlink:href="#DejaVuSans-30"/>
       <use xlink:href="#DejaVuSans-2e" x="63.623047"/>
       <use xlink:href="#DejaVuSans-36" x="95.410156"/>
      </g>
     </g>
    </g>
    <g id="xtick_5">
     <g id="line2d_5">
      <g>
       <use xlink:href="#m77532f6910" x="336.316115" y="307.584" style="stroke: #000000; stroke-width: 0.8"/>
      </g>
     </g>
     <g id="text_5">
      <!-- 0.8 -->
      <g transform="translate(328.364552 322.182437)scale(0.1 -0.1)">
       <defs>
        <path id="DejaVuSans-38" d="M 2034 2216 
Q 1584 2216 1326 1975 
Q 1069 1734 1069 1313 
Q 1069 891 1326 650 
Q 1584 409 2034 409 
Q 2484 409 2743 651 
Q 3003 894 3003 1313 
Q 3003 1734 2745 1975 
Q 2488 2216 2034 2216 
z
M 1403 2484 
Q 997 2584 770 2862 
Q 544 3141 544 3541 
Q 544 4100 942 4425 
Q 1341 4750 2034 4750 
Q 2731 4750 3128 4425 
Q 3525 4100 3525 3541 
Q 3525 3141 3298 2862 
Q 3072 2584 2669 2484 
Q 3125 2378 3379 2068 
Q 3634 1759 3634 1313 
Q 3634 634 3220 271 
Q 2806 -91 2034 -91 
Q 1263 -91 848 271 
Q 434 634 434 1313 
Q 434 1759 690 2068 
Q 947 2378 1403 2484 
z
M 1172 3481 
Q 1172 3119 1398 2916 
Q 1625 2713 2034 2713 
Q 2441 2713 2670 2916 
Q 2900 3119 2900 3481 
Q 2900 3844 2670 4047 
Q 2441 4250 2034 4250 
Q 1625 4250 1398 4047 
Q 1172 3844 1172 3481 
z
" transform="scale(0.015625)"/>
       </defs>
       <use xlink:href="#DejaVuSans-30"/>
       <use xlink:href="#DejaVuSans-2e" x="63.623047"/>
       <use xlink:href="#DejaVuSans-38" x="95.410156"/>
      </g>
     </g>
    </g>
    <g id="xtick_6">
     <g id="line2d_6">
      <g>
       <use xlink:href="#m77532f6910" x="402.324387" y="307.584" style="stroke: #000000; stroke-width: 0.8"/>
      </g>
     </g>
     <g id="text_6">
      <!-- 1.0 -->
      <g transform="translate(394.372825 322.182437)scale(0.1 -0.1)">
       <defs>
        <path id="DejaVuSans-31" d="M 794 531 
L 1825 531 
L 1825 4091 
L 703 3866 
L 703 4441 
L 1819 4666 
L 2450 4666 
L 2450 531 
L 3481 531 
L 3481 0 
L 794 0 
L 794 531 
z
" transform="scale(0.015625)"/>
       </defs>
       <use xlink:href="#DejaVuSans-31"/>
       <use xlink:href="#DejaVuSans-2e" x="63.623047"/>
       <use xlink:href="#DejaVuSans-30" x="95.410156"/>
      </g>
     </g>
    </g>
    <g id="text_7">
     <!-- Variable X -->
     <g transform="translate(210.900625 335.860562)scale(0.1 -0.1)">
      <defs>
       <path id="DejaVuSans-56" d="M 1831 0 
L 50 4666 
L 709 4666 
L 2188 738 
L 3669 4666 
L 4325 4666 
L 2547 0 
L 1831 0 
z
" transform="scale(0.015625)"/>
       <path id="DejaVuSans-61" d="M 2194 1759 
Q 1497 1759 1228 1600 
Q 959 1441 959 1056 
Q 959 750 1161 570 
Q 1363 391 1709 391 
Q 2188 391 2477 730 
Q 2766 1069 2766 1631 
L 2766 1759 
L 2194 1759 
z
M 3341 1997 
L 3341 0 
L 2766 0 
L 2766 531 
Q 2569 213 2275 61 
Q 1981 -91 1556 -91 
Q 1019 -91 701 211 
Q 384 513 384 1019 
Q 384 1609 779 1909 
Q 1175 2209 1959 2209 
L 2766 2209 
L 2766 2266 
Q 2766 2663 2505 2880 
Q 2244 3097 1772 3097 
Q 1472 3097 1187 3025 
Q 903 2953 641 2809 
L 641 3341 
Q 956 3463 1253 3523 
Q 1550 3584 1831 3584 
Q 2591 3584 2966 3190 
Q 3341 2797 3341 1997 
z
" transform="scale(0.015625)"/>
       <path id="DejaVuSans-72" d="M 2631 2963 
Q 2534 3019 2420 3045 
Q 2306 3072 2169 3072 
Q 1681 3072 1420 2755 
Q 1159 2438 1159 1844 
L 1159 0 
L 581 0 
L 581 3500 
L 1159 3500 
L 1159 2956 
Q 1341 3275 1631 3429 
Q 1922 3584 2338 3584 
Q 2397 3584 2469 3576 
Q 2541 3569 2628 3553 
L 2631 2963 
z
" transform="scale(0.015625)"/>
       <path id="DejaVuSans-69" d="M 603 3500 
L 1178 3500 
L 1178 0 
L 603 0 
L 603 3500 
z
M 603 4863 
L 1178 4863 
L 1178 4134 
L 603 4134 
L 603 4863 
z
" transform="scale(0.015625)"/>
       <path id="DejaVuSans-62" d="M 3116 1747 
Q 3116 2381 2855 2742 
Q 2594 3103 2138 3103 
Q 1681 3103 1420 2742 
Q 1159 2381 1159 1747 
Q 1159 1113 1420 752 
Q 1681 391 2138 391 
Q 2594 391 2855 752 
Q 3116 1113 3116 1747 
z
M 1159 2969 
Q 1341 3281 1617 3432 
Q 1894 3584 2278 3584 
Q 2916 3584 3314 3078 
Q 3713 2572 3713 1747 
Q 3713 922 3314 415 
Q 2916 -91 2278 -91 
Q 1894 -91 1617 61 
Q 1341 213 1159 525 
L 1159 0 
L 581 0 
L 581 4863 
L 1159 4863 
L 1159 2969 
z
" transform="scale(0.015625)"/>
       <path id="DejaVuSans-6c" d="M 603 4863 
L 1178 4863 
L 1178 0 
L 603 0 
L 603 4863 
z
" transform="scale(0.015625)"/>
       <path id="DejaVuSans-65" d="M 3597 1894 
L 3597 1613 
L 953 1613 
Q 991 1019 1311 708 
Q 1631 397 2203 397 
Q 2534 397 2845 478 
Q 3156 559 3463 722 
L 3463 178 
Q 3153 47 2828 -22 
Q 2503 -91 2169 -91 
Q 1331 -91 842 396 
Q 353 884 353 1716 
Q 353 2575 817 3079 
Q 1281 3584 2069 3584 
Q 2775 3584 3186 3129 
Q 3597 2675 3597 1894 
z
M 3022 2063 
Q 3016 2534 2758 2815 
Q 2500 3097 2075 3097 
Q 1594 3097 1305 2825 
Q 1016 2553 972 2059 
L 3022 2063 
z
" transform="scale(0.015625)"/>
       <path id="DejaVuSans-20" transform="scale(0.015625)"/>
       <path id="DejaVuSans-58" d="M 403 4666 
L 1081 4666 
L 2241 2931 
L 3406 4666 
L 4084 4666 
L 2584 2425 
L 4184 0 
L 3506 0 
L 2194 1984 
L 872 0 
L 191 0 
L 1856 2491 
L 403 4666 
z
" transform="scale(0.015625)"/>
      </defs>
      <use xlink:href="#DejaVuSans-56"/>
      <use xlink:href="#DejaVuSans-61" x="60.658203"/>
      <use xlink:href="#DejaVuSans-72" x="121.9375"/>
      <use xlink:href="#DejaVuSans-69" x="163.050781"/>
      <use xlink:href="#DejaVuSans-61" x="190.833984"/>
      <use xlink:href="#DejaVuSans-62" x="252.113281"/>
      <use xlink:href="#DejaVuSans-6c" x="315.589844"/>
      <use xlink:href="#DejaVuSans-65" x="343.373047"/>
      <use xlink:href="#DejaVuSans-20" x="404.896484"/>
      <use xlink:href="#DejaVuSans-58" x="436.683594"/>
     </g>
    </g>
   </g>
   <g id="matplotlib.axis_2">
    <g id="ytick_1">
     <g id="line2d_7">
      <defs>
       <path id="m5906cfb3dd" d="M 0 0 
L -3.5 0 
" style="stroke: #000000; stroke-width: 0.8"/>
      </defs>
      <g>
       <use xlink:href="#m5906cfb3dd" x="57.6" y="298.35881" style="stroke: #000000; stroke-width: 0.8"/>
      </g>
     </g>
     <g id="text_8">
      <!-- 0.0 -->
      <g transform="translate(34.696875 302.158029)scale(0.1 -0.1)">
       <use xlink:href="#DejaVuSans-30"/>
       <use xlink:href="#DejaVuSans-2e" x="63.623047"/>
       <use xlink:href="#DejaVuSans-30" x="95.410156"/>
      </g>
     </g>
    </g>
    <g id="ytick_2">
     <g id="line2d_8">
      <g>
       <use xlink:href="#m5906cfb3dd" x="57.6" y="249.344135" style="stroke: #000000; stroke-width: 0.8"/>
      </g>
     </g>
     <g id="text_9">
      <!-- 0.2 -->
      <g transform="translate(34.696875 253.143353)scale(0.1 -0.1)">
       <use xlink:href="#DejaVuSans-30"/>
       <use xlink:href="#DejaVuSans-2e" x="63.623047"/>
       <use xlink:href="#DejaVuSans-32" x="95.410156"/>
      </g>
     </g>
    </g>
    <g id="ytick_3">
     <g id="line2d_9">
      <g>
       <use xlink:href="#m5906cfb3dd" x="57.6" y="200.329459" style="stroke: #000000; stroke-width: 0.8"/>
      </g>
     </g>
     <g id="text_10">
      <!-- 0.4 -->
      <g transform="translate(34.696875 204.128678)scale(0.1 -0.1)">
       <use xlink:href="#DejaVuSans-30"/>
       <use xlink:href="#DejaVuSans-2e" x="63.623047"/>
       <use xlink:href="#DejaVuSans-34" x="95.410156"/>
      </g>
     </g>
    </g>
    <g id="ytick_4">
     <g id="line2d_10">
      <g>
       <use xlink:href="#m5906cfb3dd" x="57.6" y="151.314783" style="stroke: #000000; stroke-width: 0.8"/>
      </g>
     </g>
     <g id="text_11">
      <!-- 0.6 -->
      <g transform="translate(34.696875 155.114002)scale(0.1 -0.1)">
       <use xlink:href="#DejaVuSans-30"/>
       <use xlink:href="#DejaVuSans-2e" x="63.623047"/>
       <use xlink:href="#DejaVuSans-36" x="95.410156"/>
      </g>
     </g>
    </g>
    <g id="ytick_5">
     <g id="line2d_11">
      <g>
       <use xlink:href="#m5906cfb3dd" x="57.6" y="102.300108" style="stroke: #000000; stroke-width: 0.8"/>
      </g>
     </g>
     <g id="text_12">
      <!-- 0.8 -->
      <g transform="translate(34.696875 106.099326)scale(0.1 -0.1)">
       <use xlink:href="#DejaVuSans-30"/>
       <use xlink:href="#DejaVuSans-2e" x="63.623047"/>
       <use xlink:href="#DejaVuSans-38" x="95.410156"/>
      </g>
     </g>
    </g>
    <g id="ytick_6">
     <g id="line2d_12">
      <g>
       <use xlink:href="#m5906cfb3dd" x="57.6" y="53.285432" style="stroke: #000000; stroke-width: 0.8"/>
      </g>
     </g>
     <g id="text_13">
      <!-- 1.0 -->
      <g transform="translate(34.696875 57.084651)scale(0.1 -0.1)">
       <use xlink:href="#DejaVuSans-31"/>
       <use xlink:href="#DejaVuSans-2e" x="63.623047"/>
       <use xlink:href="#DejaVuSans-30" x="95.410156"/>
      </g>
     </g>
    </g>
    <g id="text_14">
     <!-- Variable Y -->
     <g transform="translate(28.617187 199.416281)rotate(-90)scale(0.1 -0.1)">
      <defs>
       <path id="DejaVuSans-59" d="M -13 4666 
L 666 4666 
L 1959 2747 
L 3244 4666 
L 3922 4666 
L 2272 2222 
L 2272 0 
L 1638 0 
L 1638 2222 
L -13 4666 
z
" transform="scale(0.015625)"/>
      </defs>
      <use xlink:href="#DejaVuSans-56"/>
      <use xlink:href="#DejaVuSans-61" x="60.658203"/>
      <use xlink:href="#DejaVuSans-72" x="121.9375"/>
      <use xlink:href="#DejaVuSans-69" x="163.050781"/>
      <use xlink:href="#DejaVuSans-61" x="190.833984"/>
      <use xlink:href="#DejaVuSans-62" x="252.113281"/>
      <use xlink:href="#DejaVuSans-6c" x="315.589844"/>
      <use xlink:href="#DejaVuSans-65" x="343.373047"/>
      <use xlink:href="#DejaVuSans-20" x="404.896484"/>
      <use xlink:href="#DejaVuSans-59" x="436.683594"/>
     </g>
    </g>
   </g>
   <g id="patch_3">
    <path d="M 57.6 307.584 
L 57.6 41.472 
" style="fill: none; stroke: #000000; stroke-width: 0.8; stroke-linejoin: miter; stroke-linecap: square"/>
   </g>
   <g id="patch_4">
    <path d="M 414.72 307.584 
L 414.72 41.472 
" style="fill: none; stroke: #000000; stroke-width: 0.8; stroke-linejoin: miter; stroke-linecap: square"/>
   </g>
   <g id="patch_5">
    <path d="M 57.6 307.584 
L 414.72 307.584 
" style="fill: none; stroke: #000000; stroke-width: 0.8; stroke-linejoin: miter; stroke-linecap: square"/>
   </g>
   <g id="patch_6">
    <path d="M 57.6 41.472 
L 414.72 41.472 
" style="fill: none; stroke: #000000; stroke-width: 0.8; stroke-linejoin: miter; stroke-linecap: square"/>
   </g>
   <g id="text_15">
    <!-- Correlation Plot -->
    <g transform="translate(189.8625 35.472)scale(0.12 -0.12)">
     <defs>
      <path id="DejaVuSans-43" d="M 4122 4306 
L 4122 3641 
Q 3803 3938 3442 4084 
Q 3081 4231 2675 4231 
Q 1875 4231 1450 3742 
Q 1025 3253 1025 2328 
Q 1025 1406 1450 917 
Q 1875 428 2675 428 
Q 3081 428 3442 575 
Q 3803 722 4122 1019 
L 4122 359 
Q 3791 134 3420 21 
Q 3050 -91 2638 -91 
Q 1578 -91 968 557 
Q 359 1206 359 2328 
Q 359 3453 968 4101 
Q 1578 4750 2638 4750 
Q 3056 4750 3426 4639 
Q 3797 4528 4122 4306 
z
" transform="scale(0.015625)"/>
      <path id="DejaVuSans-6f" d="M 1959 3097 
Q 1497 3097 1228 2736 
Q 959 2375 959 1747 
Q 959 1119 1226 758 
Q 1494 397 1959 397 
Q 2419 397 2687 759 
Q 2956 1122 2956 1747 
Q 2956 2369 2687 2733 
Q 2419 3097 1959 3097 
z
M 1959 3584 
Q 2709 3584 3137 3096 
Q 3566 2609 3566 1747 
Q 3566 888 3137 398 
Q 2709 -91 1959 -91 
Q 1206 -91 779 398 
Q 353 888 353 1747 
Q 353 2609 779 3096 
Q 1206 3584 1959 3584 
z
" transform="scale(0.015625)"/>
      <path id="DejaVuSans-74" d="M 1172 4494 
L 1172 3500 
L 2356 3500 
L 2356 3053 
L 1172 3053 
L 1172 1153 
Q 1172 725 1289 603 
Q 1406 481 1766 481 
L 2356 481 
L 2356 0 
L 1766 0 
Q 1100 0 847 248 
Q 594 497 594 1153 
L 594 3053 
L 172 3053 
L 172 3500 
L 594 3500 
L 594 4494 
L 1172 4494 
z
" transform="scale(0.015625)"/>
      <path id="DejaVuSans-6e" d="M 3513 2113 
L 3513 0 
L 2938 0 
L 2938 2094 
Q 2938 2591 2744 2837 
Q 2550 3084 2163 3084 
Q 1697 3084 1428 2787 
Q 1159 2491 1159 1978 
L 1159 0 
L 581 0 
L 581 3500 
L 1159 3500 
L 1159 2956 
Q 1366 3272 1645 3428 
Q 1925 3584 2291 3584 
Q 2894 3584 3203 3211 
Q 3513 2838 3513 2113 
z
" transform="scale(0.015625)"/>
      <path id="DejaVuSans-50" d="M 1259 4147 
L 1259 2394 
L 2053 2394 
Q 2494 2394 2734 2622 
Q 2975 2850 2975 3272 
Q 2975 3691 2734 3919 
Q 2494 4147 2053 4147 
L 1259 4147 
z
M 628 4666 
L 2053 4666 
Q 2838 4666 3239 4311 
Q 3641 3956 3641 3272 
Q 3641 2581 3239 2228 
Q 2838 1875 2053 1875 
L 1259 1875 
L 1259 0 
L 628 0 
L 628 4666 
z
" transform="scale(0.015625)"/>
     </defs>
     <use xlink:href="#DejaVuSans-43"/>
     <use xlink:href="#DejaVuSans-6f" x="69.824219"/>
     <use xlink:href="#DejaVuSans-72" x="131.005859"/>
     <use xlink:href="#DejaVuSans-72" x="170.369141"/>
     <use xlink:href="#DejaVuSans-65" x="209.232422"/>
     <use xlink:href="#DejaVuSans-6c" x="270.755859"/>
     <use xlink:href="#DejaVuSans-61" x="298.539062"/>
     <use xlink:href="#DejaVuSans-74" x="359.818359"/>
     <use xlink:href="#DejaVuSans-69" x="399.027344"/>
     <use xlink:href="#DejaVuSans-6f" x="426.810547"/>
     <use xlink:href="#DejaVuSans-6e" x="487.992188"/>
     <use xlink:href="#DejaVuSans-20" x="551.371094"/>
     <use xlink:href="#DejaVuSans-50" x="583.158203"/>
     <use xlink:href="#DejaVuSans-6c" x="643.460938"/>
     <use xlink:href="#DejaVuSans-6f" x="671.244141"/>
     <use xlink:href="#DejaVuSans-74" x="732.425781"/>
    </g>
   </g>
  </g>
 </g>
 <defs>
  <clipPath id="p93d9dd7fca">
   <rect x="57.6" y="41.472" width="357.12" height="266.112"/>
  </clipPath>
 </defs>
</svg>
